<?xml version="1.0" encoding="UTF-8" standalone="no"?>
<!DOCTYPE svg PUBLIC "-//W3C//DTD SVG 1.1//EN" "http://www.w3.org/Graphics/SVG/1.1/DTD/svg11.dtd">
<svg width="100%" height="100%" viewBox="0 0 2048 2048" version="1.1" xmlns="http://www.w3.org/2000/svg" xmlns:xlink="http://www.w3.org/1999/xlink" xml:space="preserve" xmlns:serif="http://www.serif.com/" style="fill-rule:evenodd;clip-rule:evenodd;stroke-linejoin:round;stroke-miterlimit:2;">
    <path d="M2048,410.877C2048,184.108 1863.89,0 1637.12,0L410.877,0C184.108,0 0,184.108 0,410.877L0,1637.12C0,1863.89 184.108,2048 410.877,2048L1637.12,2048C1863.89,2048 2048,1863.89 2048,1637.12L2048,410.877Z" style="fill:rgb(10,10,10);"/>
    <g transform="matrix(0.63859,0,0,0.63859,-148.596,381.96)">
        <g transform="matrix(2187.6,0,0,2187.6,420,1782)">
            <rect x="0.23" y="-0.138" width="0.14" height="0.138" style="fill:rgb(250,250,250);fill-rule:nonzero;"/>
        </g>
        <g transform="matrix(2187.6,0,0,2187.6,1425,1782)">
            <path d="M0.1,-0.53L0.1,0L0.225,0L0.225,-0.3C0.225,-0.37 0.25,-0.4 0.3,-0.4C0.34,-0.4 0.375,-0.365 0.375,-0.3L0.375,0L0.5,0L0.5,-0.3C0.5,-0.37 0.525,-0.4 0.575,-0.4C0.615,-0.4 0.65,-0.365 0.65,-0.3L0.65,0L0.775,0L0.775,-0.34C0.775,-0.45 0.7,-0.53 0.6,-0.53C0.54,-0.53 0.48,-0.5 0.45,-0.45C0.42,-0.5 0.365,-0.53 0.3,-0.53C0.24,-0.53 0.18,-0.5 0.15,-0.45L0.15,-0.53L0.1,-0.53Z" style="fill:rgb(250,250,250);fill-rule:nonzero;"/>
        </g>
    </g>
</svg>
